HIERARCHY
ROOT Hips
{
  OFFSET 5.84602e-005 68.8428 3.50346
  CHANNELS 6 Xposition Yposition Zposition Zrotation Xrotation Yrotation
  JOINT Spine
  {
    OFFSET 0 8.597 -4.6522
    CHANNELS 3 Zrotation Xrotation Yrotation
    JOINT Spine1
    {
      OFFSET 0 7.8454 0.4098
      CHANNELS 3 Zrotation Xrotation Yrotation
      JOINT Spine2
      {
        OFFSET 0 9.7078 -2.1609
        CHANNELS 3 Zrotation Xrotation Yrotation
        JOINT Neck
        {
          OFFSET 0 21.8761 -0.4549
          CHANNELS 3 Zrotation Xrotation Yrotation
          JOINT Head
          {
            OFFSET 0 12.3537 3.3602
            CHANNELS 3 Zrotation Xrotation Yrotation
            End Site
            {
              OFFSET 0.0001 18.9506 0.5657
            }
          }
        }
        JOINT LeftShoulder
        {
          OFFSET 2.2086 21.1115 7.2329
          CHANNELS 3 Zrotation Xrotation Yrotation
          JOINT LeftArm
          {
            OFFSET 13.1193 3.0282 -4.8998
            CHANNELS 3 Zrotation Xrotation Yrotation
            JOINT LeftForeArm
            {
              OFFSET 27.4081 -0.0973053 -0.2375
              CHANNELS 3 Zrotation Xrotation Yrotation
              JOINT LeftHand
              {
                OFFSET 22.8641 0.0662994 -0.1369
                CHANNELS 3 Zrotation Xrotation Yrotation
                JOINT LeftHandIndex1
                {
                  OFFSET 8.8614 0.775009 2.4612
                  CHANNELS 3 Zrotation Xrotation Yrotation
                  JOINT LeftHandIndex2
                  {
                    OFFSET 3.3146 -0.808304 0.5841
                    CHANNELS 3 Zrotation Xrotation Yrotation
                    JOINT LeftHandIndex3
                    {
                      OFFSET 2.2628 -0.552002 0.3989
                      CHANNELS 3 Zrotation Xrotation Yrotation
                      End Site
                      {
                        OFFSET 1.6102 -0.4807 0.2612
                      }
                    }
                  }
                }
                JOINT LeftHandMiddle1
                {
                  OFFSET 8.9937 0.895004 0.2143
                  CHANNELS 3 Zrotation Xrotation Yrotation
                  JOINT LeftHandMiddle2
                  {
                    OFFSET 4.0984 0.0113983 -0.0242
                    CHANNELS 3 Zrotation Xrotation Yrotation
                    JOINT LeftHandMiddle3
                    {
                      OFFSET 2.2716 0.00689697 -0.0138001
                      CHANNELS 3 Zrotation Xrotation Yrotation
                      End Site
                      {
                        OFFSET 2.0404 -0.1441 0.0027
                      }
                    }
                  }
                }
                JOINT LeftHandRing1
                {
                  OFFSET 8.5234 0.597198 -2.0164
                  CHANNELS 3 Zrotation Xrotation Yrotation
                  JOINT LeftHandRing2
                  {
                    OFFSET 3.7188 -0.188293 -0.2328
                    CHANNELS 3 Zrotation Xrotation Yrotation
                    JOINT LeftHandRing3
                    {
                      OFFSET 2.1191 -0.106598 -0.1332
                      CHANNELS 3 Zrotation Xrotation Yrotation
                      End Site
                      {
                        OFFSET 1.8737 -0.2304 -0.0886
                      }
                    }
                  }
                }
                JOINT LeftHandPinky1
                {
                  OFFSET 7.9094 -0.601089 -3.4825
                  CHANNELS 3 Zrotation Xrotation Yrotation
                  JOINT LeftHandPinky2
                  {
                    OFFSET 2.2874 -0.477005 -0.6314
                    CHANNELS 3 Zrotation Xrotation Yrotation
                    JOINT LeftHandPinky3
                    {
                      OFFSET 1.6774 -0.349396 -0.4633
                      CHANNELS 3 Zrotation Xrotation Yrotation
                      End Site
                      {
                        OFFSET 1.4888 -0.4091 -0.3416
                      }
                    }
                  }
                }
                JOINT LeftHandThumb1
                {
                  OFFSET 1.833 -1.3875 1.3896
                  CHANNELS 3 Zrotation Xrotation Yrotation
                  JOINT LeftHandThumb2
                  {
                    OFFSET 3.4129 -1.121 2.5732
                    CHANNELS 3 Zrotation Xrotation Yrotation
                    JOINT LeftHandThumb3
                    {
                      OFFSET 2.2474 -0.804199 1.6192
                      CHANNELS 3 Zrotation Xrotation Yrotation
                      End Site
                      {
                        OFFSET 1.6527 -0.5689 1.1317
                      }
                    }
                  }
                }
              }
            }
          }
        }
        JOINT RightShoulder
        {
          OFFSET -2.2086 21.1115 7.2329
          CHANNELS 3 Zrotation Xrotation Yrotation
          JOINT RightArm
          {
            OFFSET -13.1216 3.0287 -4.9007
            CHANNELS 3 Zrotation Xrotation Yrotation
            JOINT RightForeArm
            {
              OFFSET -27.4081 -0.0973053 -0.2375
              CHANNELS 3 Zrotation Xrotation Yrotation
              JOINT RightHand
              {
                OFFSET -22.8641 0.0664063 -0.1369
                CHANNELS 3 Zrotation Xrotation Yrotation
                JOINT RightHandIndex1
                {
                  OFFSET -8.8614 0.774994 2.4612
                  CHANNELS 3 Zrotation Xrotation Yrotation
                  JOINT RightHandIndex2
                  {
                    OFFSET -3.3146 -0.808304 0.5841
                    CHANNELS 3 Zrotation Xrotation Yrotation
                    JOINT RightHandIndex3
                    {
                      OFFSET -2.2628 -0.552002 0.3989
                      CHANNELS 3 Zrotation Xrotation Yrotation
                      End Site
                      {
                        OFFSET -1.6102 -0.4807 0.2612
                      }
                    }
                  }
                }
                JOINT RightHandMiddle1
                {
                  OFFSET -8.9937 0.894989 0.2143
                  CHANNELS 3 Zrotation Xrotation Yrotation
                  JOINT RightHandMiddle2
                  {
                    OFFSET -4.0984 0.0113983 -0.0242
                    CHANNELS 3 Zrotation Xrotation Yrotation
                    JOINT RightHandMiddle3
                    {
                      OFFSET -2.2716 0.00691223 -0.0138001
                      CHANNELS 3 Zrotation Xrotation Yrotation
                      End Site
                      {
                        OFFSET -2.0404 -0.1441 0.0027
                      }
                    }
                  }
                }
                JOINT RightHandRing1
                {
                  OFFSET -8.5234 0.597198 -2.0164
                  CHANNELS 3 Zrotation Xrotation Yrotation
                  JOINT RightHandRing2
                  {
                    OFFSET -3.7188 -0.188309 -0.2328
                    CHANNELS 3 Zrotation Xrotation Yrotation
                    JOINT RightHandRing3
                    {
                      OFFSET -2.1191 -0.106598 -0.1332
                      CHANNELS 3 Zrotation Xrotation Yrotation
                      End Site
                      {
                        OFFSET -1.8737 -0.2304 -0.0886
                      }
                    }
                  }
                }
                JOINT RightHandPinky1
                {
                  OFFSET -7.9094 -0.601105 -3.4825
                  CHANNELS 3 Zrotation Xrotation Yrotation
                  JOINT RightHandPinky2
                  {
                    OFFSET -2.2874 -0.477005 -0.6314
                    CHANNELS 3 Zrotation Xrotation Yrotation
                    JOINT RightHandPinky3
                    {
                      OFFSET -1.6774 -0.349396 -0.4633
                      CHANNELS 3 Zrotation Xrotation Yrotation
                      End Site
                      {
                        OFFSET -1.4888 -0.4091 -0.3416
                      }
                    }
                  }
                }
                JOINT RightHandThumb1
                {
                  OFFSET -1.833 -1.38751 1.3896
                  CHANNELS 3 Zrotation Xrotation Yrotation
                  JOINT RightHandThumb2
                  {
                    OFFSET -3.41299 -1.12099 2.5732
                    CHANNELS 3 Zrotation Xrotation Yrotation
                    JOINT RightHandThumb3
                    {
                      OFFSET -2.24741 -0.804108 1.6192
                      CHANNELS 3 Zrotation Xrotation Yrotation
                      End Site
                      {
                        OFFSET -1.6527 -0.5689 1.1317
                      }
                    }
                  }
                }
              }
            }
          }
        }
      }
    }
  }
  JOINT RightUpLeg
  {
    OFFSET -9.1966 3.8861 -0.7581
    CHANNELS 3 Zrotation Xrotation Yrotation
    JOINT RightLeg
    {
      OFFSET -0.7359 -41.0265 0
      CHANNELS 3 Zrotation Xrotation Yrotation
      JOINT RightFoot
      {
        OFFSET 0 -40.2855 0
        CHANNELS 3 Zrotation Xrotation Yrotation
        JOINT RightToeBase
        {
          OFFSET 0 -5.6122 11.7359
          CHANNELS 3 Zrotation Xrotation Yrotation
          End Site
          {
            OFFSET 0 0 7.8731
          }
        }
      }
    }
  }
  JOINT LeftUpLeg
  {
    OFFSET 9.1965 3.8864 -0.7581
    CHANNELS 3 Zrotation Xrotation Yrotation
    JOINT LeftLeg
    {
      OFFSET 0.7359 -41.0268 0
      CHANNELS 3 Zrotation Xrotation Yrotation
      JOINT LeftFoot
      {
        OFFSET 0 -40.2855 0
        CHANNELS 3 Zrotation Xrotation Yrotation
        JOINT LeftToeBase
        {
          OFFSET 0 -5.6122 11.7359
          CHANNELS 3 Zrotation Xrotation Yrotation
          End Site
          {
            OFFSET 0 0 7.8731
          }
        }
      }
    }
  }
}
MOTION
Frames:	6
Frame Time:	0.0333333
5.84602e-005 68.8428 3.50346 0 0 -0 0 0 -0 0 0 -0 0 0 -0 0 0 -0 0 0 -0 0 0 -0 0 0 -0 0 0 -0 0 0 -0 0 0 -0 0 0 -0 0 0 -0 0 0 -0 -0.0146107 -8.87603e-005 -2.63497e-007 2.99804e-018 -2.42657e-020 -1.42182e-022 0 0 -0 -0.0187562 -0.001176 5.858e-005 5.06224e-018 3.88251e-019 1.21329e-020 0 0 -0 -0.012269 -0.00324817 0.000675346 -1.74678e-018 3.88251e-019 -0 0 0 -0 0 0 -0 0 0 -0 0 0 -0 0 0 -0 0 0 -0 0 0 -0 0 0 -0 0 0 -0 0 0 -0 0 0 -0 0.0149955 -9.10982e-005 2.64101e-007 -9.69331e-018 1.21329e-020 -4.7394e-023 0 0 -0 0.0189956 -0.00119102 -5.96516e-005 -5.41541e-019 0 2.42657e-020 0 0 -0 0.0122698 -0.00324857 -0.000673756 -2.00796e-019 0 -1.94126e-019 0 0 -0 0 0 -0 0 0 -0 3.39842 1.33031 -0.0637918 -5.65207e-008 0.834868 -0.000436188 -3.39935 -2.16518 -0.0642563 -8.89002e-024 -1.18485e-023 -1.48106e-024 -3.39844 1.35642 0.0640283 -3.18788e-007 0.782166 -0.000588827 3.39931 -2.13858 0.0634662 1.1399e-023 0 -0 
0.078454 1.52213 6.79546 0.645985 -48.0242 -1.50211 -1.98654 11.2844 -0.600728 -3.96899 22.5826 -0.817452 -3.96899 22.5826 -0.817453 2.00906 5.996 -0.212057 10.9491 -23.9407 13.4889 -13.2752 -6.25033 12.4898 -59.0274 -4.19729 -1.49427 2.8303 -23.8821 -18.0566 15.3463 57.9564 18.3839 -6.23895e-007 -4.19531e-007 -5.50777e-007 -2.19904e-007 -3.36203e-007 7.5267e-007 6.23895e-007 4.19531e-007 5.50777e-007 -6.23895e-007 -4.19531e-007 -5.50777e-007 -0.0146046 -8.76762e-005 -8.92493e-007 2.38542e-015 0 6.36111e-015 -6.23895e-007 -4.19531e-007 -5.50777e-007 -0.0187673 -0.0011771 6.16704e-005 6.21341e-007 4.1928e-007 5.50848e-007 -6.23895e-007 -4.19531e-007 -5.50777e-007 -0.0122823 -0.00325567 0.000675546 3.18055e-015 -6.36111e-015 3.18055e-015 -6.23895e-007 -4.19531e-007 -5.50777e-007 -2.19904e-007 -3.36203e-007 7.5267e-007 6.23895e-007 4.19531e-007 5.50777e-007 -2.96058 -7.88348 29.0072 7.60245 -18.4904 45.0248 34.8419 -55.7238 29.0274 25.5084 -18.5709 17.0766 -1.85955e-006 3.46508e-007 9.03631e-007 -3.18055e-015 -7.95139e-016 -1.59028e-015 -7.73143e-006 5.84302e-007 -6.38659e-007 -1.85955e-006 3.46508e-007 9.03631e-007 0.0149907 -9.13383e-005 3.07448e-006 -7.73218e-006 5.84223e-007 -6.38729e-007 -1.85955e-006 3.46508e-007 9.03631e-007 0.0189915 -0.00119782 -6.11546e-005 -5.72398e-006 6.38672e-007 5.84252e-007 -1.85955e-006 3.46508e-007 9.03631e-007 0.0122453 -0.0032412 -0.000671293 -5.72443e-006 6.38469e-007 5.84351e-007 -1.85955e-006 3.46508e-007 9.03631e-007 -3.18055e-015 -7.95139e-016 -1.59028e-015 -7.73143e-006 5.84302e-007 -6.38659e-007 -91.376 -73.7079 -102.383 -148.472 76.0508 147.755 21.7738 31.4738 -14.0943 -8.25674e-007 -5.33162e-008 -3.11486e-007 44.6423 -22.429 112.349 -141.74 82.1221 139.986 -56.838 21.5168 56.4664 4.46037e-006 5.00162e-007 -6.32669e-007 
0.078454 1.52213 6.79546 0.645985 -48.0242 -1.50211 -1.98654 11.2844 -0.600728 -3.96899 22.5826 -0.817452 -3.96899 22.5826 -0.817453 2.07333 6.04904 -0.286009 10.9491 -23.9407 13.4889 -13.2752 -6.25033 12.4898 -59.0274 -4.19729 -1.49427 2.8303 -23.8821 -18.0566 15.3463 57.9564 18.3839 -7.95139e-016 -3.18055e-015 -0 2.64834e-031 -9.54166e-015 1.59028e-015 -1.76556e-031 -6.36111e-015 -1.59028e-015 -7.95139e-016 -3.18055e-015 -0 -0.0146554 -9.0249e-005 -3.12469e-006 -4.77083e-015 6.36111e-015 4.77083e-015 -7.95139e-016 -3.18055e-015 -0 -0.0187659 -0.00117491 5.678e-005 7.95139e-016 3.18055e-015 3.18055e-015 -7.95139e-016 -3.18055e-015 -0 -0.0122727 -0.00324781 0.000679204 -6.36111e-015 -3.18055e-015 -0 -7.95139e-016 -3.18055e-015 -0 2.64834e-031 -9.54166e-015 1.59028e-015 -1.76556e-031 -6.36111e-015 -1.59028e-015 -2.96058 -7.88348 29.0072 7.60245 -18.4904 45.0248 34.5943 -55.3042 29.0056 25.0826 -18.7803 17.2199 -3.18055e-015 -7.15625e-015 -3.18055e-015 -6.36111e-015 -5.56597e-015 -3.18055e-015 3.18055e-015 -6.36111e-015 -4.77083e-015 -3.18055e-015 -7.15625e-015 -3.18055e-015 0.0149733 -9.44681e-005 1.68588e-006 5.51738e-032 1.98785e-015 -1.59028e-015 -3.18055e-015 -7.15625e-015 -3.18055e-015 0.0189737 -0.00119148 -6.15841e-005 1.97644e-006 8.86745e-008 1.25658e-006 -3.18055e-015 -7.15625e-015 -3.18055e-015 0.0122653 -0.00324675 -0.000678447 3.18055e-015 -7.95139e-016 -0 -3.18055e-015 -7.15625e-015 -3.18055e-015 -6.36111e-015 -5.56597e-015 -3.18055e-015 3.18055e-015 -6.36111e-015 -4.77083e-015 -91.376 -73.7079 -102.383 -148.472 76.0508 147.755 21.7738 31.4738 -14.0943 -8.25674e-007 -5.33162e-008 -3.11486e-007 44.6423 -22.429 112.349 -141.74 82.1221 139.986 -56.838 21.5169 56.4664 -2.4673e-006 3.21258e-006 -3.43318e-007 
0.078454 1.52213 6.79546 0.645985 -48.0242 -1.50211 -1.98654 11.2844 -0.600728 -3.96899 22.5826 -0.817452 -3.96899 22.5826 -0.817453 2.13768 6.10214 -0.360071 10.9491 -23.9407 13.4889 -13.2752 -6.25033 12.4898 -59.0274 -4.19729 -1.49427 2.83031 -23.8821 -18.0566 15.3463 57.9563 18.3839 7.15625e-015 -3.18055e-015 -3.18055e-015 3.01068e-006 -1.28174e-007 8.79614e-007 2.60669e-006 -2.11498e-007 -4.23835e-007 7.15625e-015 -3.18055e-015 -3.18055e-015 -0.0145743 -8.93262e-005 2.45723e-006 2.6085e-006 -2.11433e-007 -4.23865e-007 7.15625e-015 -3.18055e-015 -3.18055e-015 -0.0187645 -0.00117981 5.87774e-005 3.8517e-006 6.27267e-007 6.77794e-007 7.15625e-015 -3.18055e-015 -3.18055e-015 -0.0122795 -0.00324718 0.000679913 3.23044e-006 2.07957e-007 1.26882e-007 7.15625e-015 -3.18055e-015 -3.18055e-015 3.01068e-006 -1.28174e-007 8.79614e-007 2.60669e-006 -2.11498e-007 -4.23835e-007 -2.96058 -7.88348 29.0072 7.60245 -18.4904 45.0248 34.3491 -54.8838 28.9872 24.6559 -18.9911 17.362 3.18055e-015 -2.78299e-015 -0 -8.82781e-032 -3.18055e-015 -1.59028e-015 -0 -2.78299e-015 -0 3.18055e-015 -2.78299e-015 -0 0.0149687 -8.70995e-005 1.02471e-007 3.18055e-015 -1.19271e-015 3.18055e-015 3.18055e-015 -2.78299e-015 -0 0.0190247 -0.00118937 -5.49102e-005 1.98626e-031 7.15625e-015 -1.59028e-015 3.18055e-015 -2.78299e-015 -0 0.0122778 -0.0032473 -0.000676527 -6.36111e-015 7.95139e-016 1.59028e-015 3.18055e-015 -2.78299e-015 -0 -8.82781e-032 -3.18055e-015 -1.59028e-015 -0 -2.78299e-015 -0 -91.3761 -73.7079 -102.383 -148.472 76.0508 147.755 21.7738 31.4739 -14.0943 -4.10953e-006 2.31136e-008 -3.05708e-007 44.6423 -22.429 112.349 -141.74 82.1221 139.986 -56.838 21.5168 56.4664 -1.02048e-005 5.61374e-008 -1.40504e-006 
0.078454 1.52213 6.79546 0.645985 -48.0242 -1.50211 -1.98654 11.2844 -0.600727 -3.96899 22.5826 -0.817453 -3.96899 22.5826 -0.817455 2.20214 6.15503 -0.43419 10.9491 -23.9407 13.4889 -13.2752 -6.25033 12.4898 -59.0274 -4.19729 -1.49427 2.83031 -23.8821 -18.0566 15.3463 57.9564 18.3839 -3.21059e-007 -1.63105e-006 -1.13596e-006 4.95722e-007 -2.59115e-006 -7.94035e-007 -3.21059e-007 -1.63105e-006 -1.13596e-006 -3.21059e-007 -1.63105e-006 -1.13596e-006 -0.0146532 -9.15543e-005 3.90273e-007 -3.20118e-007 -1.6309e-006 -1.13617e-006 -3.21059e-007 -1.63105e-006 -1.13596e-006 -0.0187672 -0.00118529 5.5756e-005 3.01477e-007 -1.21152e-006 -5.85383e-007 -3.21059e-007 -1.63105e-006 -1.13596e-006 -0.0122824 -0.00325868 0.000674203 -3.20311e-007 -1.63072e-006 -1.13617e-006 -3.21059e-007 -1.63105e-006 -1.13596e-006 4.95722e-007 -2.59115e-006 -7.94035e-007 -3.21059e-007 -1.63105e-006 -1.13596e-006 -2.96058 -7.88348 29.0072 7.60246 -18.4904 45.0248 34.1063 -54.4626 28.9721 24.2283 -19.2035 17.503 1.91067e-006 1.56918e-007 1.32514e-006 -1.74576e-007 -1.74663e-006 7.81467e-007 -6.36111e-015 -2.38542e-015 -1.59028e-015 1.91067e-006 1.56918e-007 1.32514e-006 0.0150091 -9.11114e-005 9.547e-007 -1.91243e-006 -1.5708e-007 -1.32512e-006 1.91067e-006 1.56918e-007 1.32514e-006 0.0189959 -0.00119654 -6.36128e-005 -3.18055e-015 1.19271e-015 1.59028e-015 1.91067e-006 1.56918e-007 1.32514e-006 0.0122862 -0.00325152 -0.000673298 -9.54166e-015 3.97569e-016 -4.77083e-015 1.91067e-006 1.56918e-007 1.32514e-006 -1.74576e-007 -1.74663e-006 7.81467e-007 -6.36111e-015 -2.38542e-015 -1.59028e-015 -91.376 -73.7079 -102.383 -148.472 76.0508 147.755 21.7738 31.4738 -14.0943 -3.28386e-006 7.64271e-008 5.7779e-009 44.6423 -22.429 112.349 -141.74 82.1221 139.986 -56.8381 21.5169 56.4664 2.17937e-007 7.80277e-007 -2.49638e-007 
0.078453 1.52213 6.79546 0.645985 -48.0242 -1.50211 -1.98653 11.2843 -0.600726 -3.96899 22.5826 -0.817452 -3.96899 22.5826 -0.817454 2.26665 6.208 -0.508379 10.9491 -23.9407 13.4889 -13.2752 -6.25031 12.4898 -59.0274 -4.19729 -1.49427 2.83032 -23.8821 -18.0566 15.3463 57.9564 18.3839 -2.19903e-007 -3.36203e-007 7.5267e-007 2.19903e-007 3.36203e-007 -7.5267e-007 -2.19903e-007 -3.36203e-007 7.5267e-007 -2.19903e-007 -3.36203e-007 7.5267e-007 -0.014652 -8.68629e-005 -2.02414e-006 -2.19899e-007 -3.36299e-007 7.52628e-007 -2.19903e-007 -3.36203e-007 7.5267e-007 -0.0187576 -0.00117873 5.75289e-005 4.01455e-007 8.29479e-008 1.30346e-006 -2.19903e-007 -3.36203e-007 7.5267e-007 -0.0122783 -0.00324534 0.000675776 4.02361e-007 8.27382e-008 1.30354e-006 -2.19903e-007 -3.36203e-007 7.5267e-007 2.19903e-007 3.36203e-007 -7.5267e-007 -2.19903e-007 -3.36203e-007 7.5267e-007 -2.96059 -7.88345 29.0072 7.60246 -18.4904 45.0248 33.8657 -54.0407 28.9601 23.7999 -19.4172 17.6428 -6.36111e-015 0 4.77083e-015 -6.36111e-015 -7.95139e-016 1.59028e-015 -9.54166e-015 0 4.77083e-015 -6.36111e-015 0 4.77083e-015 0.0150063 -9.402e-005 -4.23156e-006 -6.36111e-015 -3.97569e-015 -0 -6.36111e-015 0 4.77083e-015 0.0189886 -0.00119232 -6.20224e-005 -1.88136e-006 -1.91066e-007 -1.35993e-006 -6.36111e-015 0 4.77083e-015 0.0122876 -0.00325043 -0.000673134 -1.27222e-014 -2.38542e-014 9.54166e-015 -6.36111e-015 0 4.77083e-015 -6.36111e-015 -7.95139e-016 1.59028e-015 -9.54166e-015 0 4.77083e-015 -91.3761 -73.7079 -102.383 -148.472 76.0508 147.755 21.7738 31.4739 -14.0943 -3.97569e-015 0 1.59028e-015 44.6422 -22.429 112.349 -141.74 82.1221 139.986 -56.838 21.5169 56.4664 -5.56597e-015 -3.97569e-015 6.36111e-015 
